<svg xmlns="http://www.w3.org/2000/svg" xmlns:xlink="http://www.w3.org/1999/xlink" width="500" zoomAndPan="magnify" viewBox="0 0 375 374.999991" height="500" preserveAspectRatio="xMidYMid meet" version="1.0"><defs><g></g></defs><path fill="#ffffff" d="M 83.003906 187.765625 C 74.570312 185.1875 69.972656 173.980469 76.332031 168.828125 C 80.25 165.652344 88.121094 170.355469 82.703125 177.230469 C 95.800781 169.429688 78.078125 157.320312 71.253906 168.6875 C 66.277344 176.980469 72.03125 188.285156 83.003906 187.765625 " fill-opacity="1" fill-rule="evenodd"></path><path fill="#ffffff" d="M 74.957031 185.707031 C 77.535156 177.273438 88.738281 172.675781 93.894531 179.035156 C 97.070312 182.949219 92.363281 190.820312 85.488281 185.402344 C 93.289062 198.5 105.398438 180.777344 94.035156 173.957031 C 85.738281 168.976562 74.4375 174.730469 74.957031 185.707031 " fill-opacity="1" fill-rule="evenodd"></path><path fill="#ffffff" d="M 77.015625 177.65625 C 85.449219 180.234375 90.046875 191.441406 83.6875 196.59375 C 79.773438 199.769531 71.902344 195.066406 77.316406 188.191406 C 64.222656 195.988281 81.945312 208.101562 88.765625 196.734375 C 93.742188 188.4375 87.988281 177.136719 77.015625 177.65625 " fill-opacity="1" fill-rule="evenodd"></path><path fill="#ffffff" d="M 85.066406 179.714844 C 82.488281 188.152344 71.28125 192.746094 66.128906 186.386719 C 62.953125 182.472656 67.65625 174.601562 74.53125 180.019531 C 66.730469 166.921875 54.621094 184.644531 65.988281 191.464844 C 74.28125 196.445312 85.582031 190.691406 85.066406 179.714844 " fill-opacity="1" fill-rule="evenodd"></path><g fill="#ffffff" fill-opacity="1"><g transform="translate(111.468381, 196.047702)"><g><path d="M 8.3125 0 L 2.09375 0 L 2.09375 -26.53125 L 20.203125 -26.53125 L 20.203125 -20.96875 L 8.3125 -20.96875 L 8.3125 -16.03125 L 19.046875 -16.03125 L 19.046875 -10.5 L 8.3125 -10.5 Z M 8.3125 0 "></path></g></g></g><g fill="#ffffff" fill-opacity="1"><g transform="translate(130.904407, 196.047702)"><g><path d="M 4.828125 -21.0625 C 3.929688 -21.0625 3.15625 -21.328125 2.5 -21.859375 C 1.851562 -22.398438 1.53125 -23.132812 1.53125 -24.0625 C 1.53125 -24.988281 1.851562 -25.722656 2.5 -26.265625 C 3.15625 -26.804688 3.929688 -27.078125 4.828125 -27.078125 C 5.734375 -27.078125 6.507812 -26.804688 7.15625 -26.265625 C 7.8125 -25.722656 8.140625 -24.988281 8.140625 -24.0625 C 8.140625 -23.132812 7.8125 -22.398438 7.15625 -21.859375 C 6.507812 -21.328125 5.734375 -21.0625 4.828125 -21.0625 Z M 7.75 0 L 1.90625 0 L 1.90625 -19.71875 L 7.75 -19.71875 Z M 7.75 0 "></path></g></g></g><g fill="#ffffff" fill-opacity="1"><g transform="translate(138.936042, 196.047702)"><g><path d="M 7.75 0 L 1.90625 0 L 1.90625 -19.71875 L 7.75 -19.71875 L 7.75 -17.59375 C 8.425781 -18.59375 9.175781 -19.265625 10 -19.609375 C 10.820312 -19.953125 11.753906 -20.125 12.796875 -20.125 C 14.085938 -20.125 15.15625 -19.96875 16 -19.65625 C 16.851562 -19.34375 17.53125 -18.925781 18.03125 -18.40625 C 18.53125 -17.882812 18.90625 -17.320312 19.15625 -16.71875 C 19.550781 -15.863281 19.773438 -15.003906 19.828125 -14.140625 C 19.890625 -13.285156 19.921875 -12.242188 19.921875 -11.015625 L 19.921875 0 L 14.078125 0 L 14.078125 -11.09375 C 14.078125 -12.0625 14.015625 -12.828125 13.890625 -13.390625 C 13.765625 -13.960938 13.550781 -14.398438 13.25 -14.703125 C 12.78125 -15.191406 12.0625 -15.4375 11.09375 -15.4375 C 10.488281 -15.4375 9.960938 -15.359375 9.515625 -15.203125 C 9.078125 -15.054688 8.734375 -14.796875 8.484375 -14.421875 C 8.253906 -14.097656 8.070312 -13.675781 7.9375 -13.15625 C 7.8125 -12.632812 7.75 -11.945312 7.75 -11.09375 Z M 7.75 0 "></path></g></g></g><g fill="#ffffff" fill-opacity="1"><g transform="translate(158.997923, 196.047702)"><g><path d="M 12.796875 -20.125 C 14.484375 -20.125 15.96875 -19.6875 17.25 -18.8125 C 18.539062 -17.945312 19.550781 -16.738281 20.28125 -15.1875 C 21.007812 -13.632812 21.375 -11.851562 21.375 -9.84375 C 21.375 -7.84375 21.007812 -6.066406 20.28125 -4.515625 C 19.550781 -2.960938 18.539062 -1.75 17.25 -0.875 C 15.96875 -0.0078125 14.484375 0.421875 12.796875 0.421875 C 11.753906 0.421875 10.820312 0.25 10 -0.09375 C 9.175781 -0.445312 8.425781 -1.125 7.75 -2.125 L 7.75 6.8125 L 1.90625 6.8125 L 1.90625 -19.71875 L 7.75 -19.71875 L 7.75 -17.59375 C 8.425781 -18.59375 9.175781 -19.265625 10 -19.609375 C 10.820312 -19.953125 11.753906 -20.125 12.796875 -20.125 Z M 11.15625 -15.15625 C 9.882812 -15.15625 8.847656 -14.664062 8.046875 -13.6875 C 7.242188 -12.71875 6.84375 -11.4375 6.84375 -9.84375 C 6.84375 -8.257812 7.242188 -6.976562 8.046875 -6 C 8.847656 -5.03125 9.882812 -4.546875 11.15625 -4.546875 C 12.457031 -4.546875 13.5 -5.039062 14.28125 -6.03125 C 15.070312 -7.019531 15.46875 -8.289062 15.46875 -9.84375 C 15.46875 -11.414062 15.070312 -12.691406 14.28125 -13.671875 C 13.5 -14.660156 12.457031 -15.15625 11.15625 -15.15625 Z M 11.15625 -15.15625 "></path></g></g></g><g fill="#ffffff" fill-opacity="1"><g transform="translate(179.929039, 196.047702)"><g><path d="M 11.40625 0.421875 C 9.320312 0.421875 7.507812 -0.015625 5.96875 -0.890625 C 4.425781 -1.773438 3.226562 -2.976562 2.375 -4.5 C 1.53125 -6.019531 1.109375 -7.753906 1.109375 -9.703125 C 1.109375 -10.953125 1.300781 -12.191406 1.6875 -13.421875 C 2.070312 -14.648438 2.675781 -15.773438 3.5 -16.796875 C 4.320312 -17.816406 5.367188 -18.625 6.640625 -19.21875 C 7.910156 -19.820312 9.441406 -20.125 11.234375 -20.125 C 12.523438 -20.125 13.78125 -19.929688 15 -19.546875 C 16.21875 -19.171875 17.304688 -18.566406 18.265625 -17.734375 C 19.234375 -16.898438 20 -15.816406 20.5625 -14.484375 C 21.132812 -13.148438 21.421875 -11.53125 21.421875 -9.625 L 21.421875 -8.625 L 7.234375 -8.625 C 7.390625 -7.550781 7.722656 -6.703125 8.234375 -6.078125 C 8.648438 -5.566406 9.15625 -5.191406 9.75 -4.953125 C 10.34375 -4.710938 11 -4.59375 11.71875 -4.59375 C 12.59375 -4.59375 13.335938 -4.8125 13.953125 -5.25 C 14.566406 -5.6875 14.992188 -6.207031 15.234375 -6.8125 L 21.109375 -6.8125 C 20.734375 -5.519531 20.140625 -4.320312 19.328125 -3.21875 C 18.515625 -2.113281 17.453125 -1.226562 16.140625 -0.5625 C 14.835938 0.09375 13.257812 0.421875 11.40625 0.421875 Z M 7.40625 -12.765625 L 15.5 -12.765625 C 15.457031 -12.992188 15.367188 -13.269531 15.234375 -13.59375 C 15.109375 -13.914062 14.882812 -14.226562 14.5625 -14.53125 C 14.144531 -14.945312 13.671875 -15.238281 13.140625 -15.40625 C 12.609375 -15.582031 12.039062 -15.671875 11.4375 -15.671875 C 10.851562 -15.671875 10.289062 -15.582031 9.75 -15.40625 C 9.207031 -15.238281 8.726562 -14.945312 8.3125 -14.53125 C 7.988281 -14.207031 7.765625 -13.890625 7.640625 -13.578125 C 7.523438 -13.265625 7.445312 -12.992188 7.40625 -12.765625 Z M 7.40625 -12.765625 "></path></g></g></g><g fill="#ffffff" fill-opacity="1"><g transform="translate(200.825388, 196.047702)"><g><path d="M 7.75 0 L 1.90625 0 L 1.90625 -19.71875 L 7.75 -19.71875 L 7.75 -17.59375 C 8.425781 -18.59375 9.175781 -19.265625 10 -19.609375 C 10.820312 -19.953125 11.753906 -20.125 12.796875 -20.125 L 13.65625 -20.125 L 13.65625 -14.5625 L 12.546875 -14.5625 C 11.734375 -14.5625 11.0625 -14.46875 10.53125 -14.28125 C 10 -14.101562 9.5625 -13.851562 9.21875 -13.53125 C 8.707031 -13.039062 8.332031 -12.382812 8.09375 -11.5625 C 7.863281 -10.738281 7.75 -9.65625 7.75 -8.3125 Z M 7.75 0 "></path></g></g></g><g fill="#ffffff" fill-opacity="1"><g transform="translate(213.446596, 196.047702)"><g><path d="M 10.78125 0.421875 C 9.738281 0.421875 8.679688 0.296875 7.609375 0.046875 C 6.546875 -0.191406 5.535156 -0.585938 4.578125 -1.140625 C 3.628906 -1.703125 2.835938 -2.445312 2.203125 -3.375 C 1.566406 -4.300781 1.171875 -5.445312 1.015625 -6.8125 L 6.671875 -6.8125 C 6.992188 -5.8125 7.535156 -5.09375 8.296875 -4.65625 C 9.066406 -4.21875 9.867188 -4 10.703125 -4 C 11.492188 -4 12.15625 -4.15625 12.6875 -4.46875 C 13.21875 -4.78125 13.484375 -5.210938 13.484375 -5.765625 C 13.484375 -6.441406 13.082031 -6.910156 12.28125 -7.171875 C 11.488281 -7.441406 10.535156 -7.691406 9.421875 -7.921875 C 8.585938 -8.085938 7.722656 -8.285156 6.828125 -8.515625 C 5.941406 -8.742188 5.113281 -9.070312 4.34375 -9.5 C 3.582031 -9.9375 2.96875 -10.523438 2.5 -11.265625 C 2.039062 -12.003906 1.8125 -12.953125 1.8125 -14.109375 C 1.8125 -15.578125 2.1875 -16.75 2.9375 -17.625 C 3.6875 -18.507812 4.664062 -19.144531 5.875 -19.53125 C 7.082031 -19.925781 8.367188 -20.125 9.734375 -20.125 C 12.140625 -20.125 14.15625 -19.523438 15.78125 -18.328125 C 17.40625 -17.140625 18.40625 -15.421875 18.78125 -13.171875 L 13.25 -13.171875 C 12.96875 -14.128906 12.488281 -14.796875 11.8125 -15.171875 C 11.144531 -15.554688 10.441406 -15.75 9.703125 -15.75 C 8.984375 -15.75 8.40625 -15.613281 7.96875 -15.34375 C 7.539062 -15.082031 7.328125 -14.71875 7.328125 -14.25 C 7.328125 -13.601562 7.734375 -13.144531 8.546875 -12.875 C 9.359375 -12.613281 10.332031 -12.378906 11.46875 -12.171875 C 12.332031 -12.003906 13.210938 -11.8125 14.109375 -11.59375 C 15.015625 -11.375 15.851562 -11.054688 16.625 -10.640625 C 17.40625 -10.222656 18.03125 -9.660156 18.5 -8.953125 C 18.976562 -8.242188 19.21875 -7.3125 19.21875 -6.15625 C 19.21875 -4.1875 18.460938 -2.597656 16.953125 -1.390625 C 15.453125 -0.179688 13.394531 0.421875 10.78125 0.421875 Z M 10.78125 0.421875 "></path></g></g></g><g fill="#ffffff" fill-opacity="1"><g transform="translate(232.256768, 196.047702)"><g><path d="M 11.46875 0.421875 C 9.425781 0.421875 7.625 -0.00390625 6.0625 -0.859375 C 4.5 -1.722656 3.28125 -2.9375 2.40625 -4.5 C 1.539062 -6.0625 1.109375 -7.890625 1.109375 -9.984375 C 1.109375 -11.992188 1.539062 -13.757812 2.40625 -15.28125 C 3.28125 -16.800781 4.492188 -17.988281 6.046875 -18.84375 C 7.597656 -19.695312 9.40625 -20.125 11.46875 -20.125 C 13.53125 -20.125 15.335938 -19.695312 16.890625 -18.84375 C 18.441406 -17.988281 19.648438 -16.800781 20.515625 -15.28125 C 21.390625 -13.757812 21.828125 -11.992188 21.828125 -9.984375 C 21.828125 -7.890625 21.398438 -6.066406 20.546875 -4.515625 C 19.691406 -2.960938 18.488281 -1.75 16.9375 -0.875 C 15.382812 -0.0078125 13.5625 0.421875 11.46875 0.421875 Z M 11.46875 -4.59375 C 12.789062 -4.59375 13.832031 -5.082031 14.59375 -6.0625 C 15.363281 -7.050781 15.75 -8.359375 15.75 -9.984375 C 15.75 -11.503906 15.363281 -12.742188 14.59375 -13.703125 C 13.832031 -14.671875 12.789062 -15.15625 11.46875 -15.15625 C 10.175781 -15.15625 9.128906 -14.679688 8.328125 -13.734375 C 7.523438 -12.785156 7.125 -11.535156 7.125 -9.984375 C 7.125 -8.335938 7.523438 -7.023438 8.328125 -6.046875 C 9.128906 -5.078125 10.175781 -4.59375 11.46875 -4.59375 Z M 11.46875 -4.59375 "></path></g></g></g><g fill="#ffffff" fill-opacity="1"><g transform="translate(253.570346, 196.047702)"><g><path d="M 7.75 0 L 1.90625 0 L 1.90625 -19.71875 L 7.75 -19.71875 L 7.75 -17.59375 C 8.425781 -18.59375 9.175781 -19.265625 10 -19.609375 C 10.820312 -19.953125 11.753906 -20.125 12.796875 -20.125 C 14.085938 -20.125 15.15625 -19.96875 16 -19.65625 C 16.851562 -19.34375 17.53125 -18.925781 18.03125 -18.40625 C 18.53125 -17.882812 18.90625 -17.320312 19.15625 -16.71875 C 19.550781 -15.863281 19.773438 -15.003906 19.828125 -14.140625 C 19.890625 -13.285156 19.921875 -12.242188 19.921875 -11.015625 L 19.921875 0 L 14.078125 0 L 14.078125 -11.09375 C 14.078125 -12.0625 14.015625 -12.828125 13.890625 -13.390625 C 13.765625 -13.960938 13.550781 -14.398438 13.25 -14.703125 C 12.78125 -15.191406 12.0625 -15.4375 11.09375 -15.4375 C 10.488281 -15.4375 9.960938 -15.359375 9.515625 -15.203125 C 9.078125 -15.054688 8.734375 -14.796875 8.484375 -14.421875 C 8.253906 -14.097656 8.070312 -13.675781 7.9375 -13.15625 C 7.8125 -12.632812 7.75 -11.945312 7.75 -11.09375 Z M 7.75 0 "></path></g></g></g><g fill="#ffffff" fill-opacity="1"><g transform="translate(273.632227, 196.047702)"><g><path d="M 7.609375 0.421875 C 6.429688 0.421875 5.351562 0.203125 4.375 -0.234375 C 3.40625 -0.679688 2.625 -1.34375 2.03125 -2.21875 C 1.4375 -3.101562 1.140625 -4.207031 1.140625 -5.53125 C 1.140625 -6.707031 1.367188 -7.675781 1.828125 -8.4375 C 2.296875 -9.207031 2.890625 -9.828125 3.609375 -10.296875 C 4.304688 -10.753906 5.070312 -11.09375 5.90625 -11.3125 C 6.738281 -11.53125 7.53125 -11.710938 8.28125 -11.859375 L 13.390625 -12.765625 C 13.316406 -13.753906 13.046875 -14.515625 12.578125 -15.046875 C 12.140625 -15.515625 11.484375 -15.75 10.609375 -15.75 C 9.929688 -15.75 9.304688 -15.519531 8.734375 -15.0625 C 8.171875 -14.613281 7.820312 -13.972656 7.6875 -13.140625 L 1.875 -13.140625 C 2.132812 -14.785156 2.703125 -16.125 3.578125 -17.15625 C 4.460938 -18.1875 5.53125 -18.9375 6.78125 -19.40625 C 8.03125 -19.882812 9.316406 -20.125 10.640625 -20.125 C 11.796875 -20.125 12.90625 -19.96875 13.96875 -19.65625 C 15.039062 -19.34375 15.96875 -18.851562 16.75 -18.1875 C 17.5625 -17.488281 18.132812 -16.6875 18.46875 -15.78125 C 18.8125 -14.875 19.015625 -13.878906 19.078125 -12.796875 C 19.148438 -11.722656 19.1875 -10.578125 19.1875 -9.359375 L 19.1875 0 L 13.34375 0 L 13.34375 -2.40625 C 13.019531 -1.632812 12.554688 -1.039062 11.953125 -0.625 C 11.378906 -0.226562 10.710938 0.0390625 9.953125 0.1875 C 9.203125 0.34375 8.421875 0.421875 7.609375 0.421875 Z M 9.3125 -4 C 10.007812 -4 10.71875 -4.160156 11.4375 -4.484375 C 12.25 -4.859375 12.785156 -5.375 13.046875 -6.03125 C 13.316406 -6.6875 13.460938 -7.550781 13.484375 -8.625 L 9.90625 -7.921875 C 9.257812 -7.804688 8.757812 -7.675781 8.40625 -7.53125 C 8.0625 -7.394531 7.765625 -7.210938 7.515625 -6.984375 C 7.347656 -6.828125 7.21875 -6.648438 7.125 -6.453125 C 7.03125 -6.253906 6.984375 -6.015625 6.984375 -5.734375 C 6.984375 -5.109375 7.210938 -4.660156 7.671875 -4.390625 C 8.140625 -4.128906 8.6875 -4 9.3125 -4 Z M 9.3125 -4 "></path></g></g></g><g fill="#ffffff" fill-opacity="1"><g transform="translate(292.894406, 196.047702)"><g><path d="M 4.375 0.421875 C 3.476562 0.421875 2.695312 0.101562 2.03125 -0.53125 C 1.375 -1.175781 1.046875 -1.960938 1.046875 -2.890625 C 1.046875 -3.765625 1.375 -4.519531 2.03125 -5.15625 C 2.695312 -5.800781 3.476562 -6.125 4.375 -6.125 C 5.257812 -6.125 6.015625 -5.800781 6.640625 -5.15625 C 7.265625 -4.519531 7.578125 -3.765625 7.578125 -2.890625 C 7.578125 -1.984375 7.265625 -1.203125 6.640625 -0.546875 C 6.015625 0.0976562 5.257812 0.421875 4.375 0.421875 Z M 4.375 0.421875 "></path></g></g></g></svg>