<svg xmlns="http://www.w3.org/2000/svg" xmlns:xlink="http://www.w3.org/1999/xlink" width="500" zoomAndPan="magnify" viewBox="0 0 375 374.999991" height="500" preserveAspectRatio="xMidYMid meet" version="1.0"><defs><g></g></defs><path fill="#424242" d="M 83.003906 187.765625 C 74.570312 185.1875 69.972656 173.980469 76.332031 168.828125 C 80.25 165.652344 88.121094 170.355469 82.703125 177.230469 C 95.800781 169.429688 78.078125 157.320312 71.253906 168.6875 C 66.277344 176.980469 72.03125 188.285156 83.003906 187.765625 " fill-opacity="1" fill-rule="evenodd"></path><path fill="#424242" d="M 74.957031 185.707031 C 77.535156 177.273438 88.738281 172.675781 93.894531 179.035156 C 97.070312 182.949219 92.363281 190.820312 85.488281 185.402344 C 93.289062 198.5 105.398438 180.777344 94.035156 173.957031 C 85.738281 168.976562 74.4375 174.730469 74.957031 185.707031 " fill-opacity="1" fill-rule="evenodd"></path><path fill="#424242" d="M 77.015625 177.65625 C 85.449219 180.234375 90.046875 191.441406 83.6875 196.59375 C 79.773438 199.769531 71.902344 195.066406 77.316406 188.191406 C 64.222656 195.988281 81.945312 208.101562 88.765625 196.734375 C 93.742188 188.4375 87.988281 177.136719 77.015625 177.65625 " fill-opacity="1" fill-rule="evenodd"></path><path fill="#424242" d="M 85.066406 179.714844 C 82.488281 188.152344 71.28125 192.746094 66.128906 186.386719 C 62.953125 182.472656 67.65625 174.601562 74.53125 180.019531 C 66.730469 166.921875 54.621094 184.644531 65.988281 191.464844 C 74.28125 196.445312 85.582031 190.691406 85.066406 179.714844 " fill-opacity="1" fill-rule="evenodd"></path><g fill="#424242" fill-opacity="1"><g transform="translate(111.468381, 196.047688)"><g><path d="M 7.375 0 L 2.359375 0 L 2.359375 -26.53125 L 20.0625 -26.53125 L 20.0625 -22.046875 L 7.375 -22.046875 L 7.375 -15.5 L 18.734375 -15.5 L 18.734375 -11.0625 L 7.375 -11.0625 Z M 7.375 0 "></path></g></g></g><g fill="#424242" fill-opacity="1"><g transform="translate(130.834873, 196.047688)"><g><path d="M 4.484375 -21.65625 C 3.691406 -21.65625 3.007812 -21.898438 2.4375 -22.390625 C 1.875 -22.878906 1.59375 -23.53125 1.59375 -24.34375 C 1.59375 -25.125 1.875 -25.765625 2.4375 -26.265625 C 3.007812 -26.765625 3.691406 -27.015625 4.484375 -27.015625 C 5.273438 -27.015625 5.953125 -26.765625 6.515625 -26.265625 C 7.085938 -25.765625 7.375 -25.125 7.375 -24.34375 C 7.375 -23.53125 7.085938 -22.878906 6.515625 -22.390625 C 5.953125 -21.898438 5.273438 -21.65625 4.484375 -21.65625 Z M 6.8125 0 L 2.125 0 L 2.125 -19.5 L 6.8125 -19.5 Z M 6.8125 0 "></path></g></g></g><g fill="#424242" fill-opacity="1"><g transform="translate(138.171119, 196.047688)"><g><path d="M 6.8125 0 L 2.125 0 L 2.125 -19.5 L 6.8125 -19.5 L 6.8125 -17.03125 C 7.601562 -18.125 8.425781 -18.878906 9.28125 -19.296875 C 10.132812 -19.710938 11.085938 -19.921875 12.140625 -19.921875 C 13.921875 -19.921875 15.269531 -19.601562 16.1875 -18.96875 C 17.101562 -18.332031 17.78125 -17.5625 18.21875 -16.65625 C 18.613281 -15.789062 18.84375 -14.910156 18.90625 -14.015625 C 18.976562 -13.128906 19.015625 -12.203125 19.015625 -11.234375 L 19.015625 0 L 14.359375 0 L 14.359375 -11.296875 C 14.359375 -12.296875 14.273438 -13.101562 14.109375 -13.71875 C 13.953125 -14.332031 13.710938 -14.820312 13.390625 -15.1875 C 12.828125 -15.769531 12.003906 -16.0625 10.921875 -16.0625 C 9.597656 -16.0625 8.613281 -15.664062 7.96875 -14.875 C 7.570312 -14.414062 7.28125 -13.800781 7.09375 -13.03125 C 6.90625 -12.269531 6.8125 -11.238281 6.8125 -9.9375 Z M 6.8125 0 "></path></g></g></g><g fill="#424242" fill-opacity="1"><g transform="translate(157.572378, 196.047688)"><g><path d="M 12.375 -19.890625 C 14.09375 -19.890625 15.59375 -19.457031 16.875 -18.59375 C 18.164062 -17.738281 19.171875 -16.546875 19.890625 -15.015625 C 20.609375 -13.484375 20.96875 -11.722656 20.96875 -9.734375 C 20.96875 -7.742188 20.609375 -5.984375 19.890625 -4.453125 C 19.171875 -2.921875 18.164062 -1.722656 16.875 -0.859375 C 15.59375 -0.00390625 14.09375 0.421875 12.375 0.421875 C 11.238281 0.421875 10.226562 0.21875 9.34375 -0.1875 C 8.46875 -0.59375 7.632812 -1.351562 6.84375 -2.46875 L 6.84375 7.015625 L 2.15625 7.015625 L 2.15625 -19.5 L 6.84375 -19.5 L 6.84375 -17.03125 C 7.632812 -18.125 8.46875 -18.875 9.34375 -19.28125 C 10.226562 -19.6875 11.238281 -19.890625 12.375 -19.890625 Z M 11.296875 -15.859375 C 9.816406 -15.859375 8.609375 -15.289062 7.671875 -14.15625 C 6.734375 -13.019531 6.265625 -11.546875 6.265625 -9.734375 C 6.265625 -7.921875 6.734375 -6.445312 7.671875 -5.3125 C 8.609375 -4.175781 9.816406 -3.609375 11.296875 -3.609375 C 12.804688 -3.609375 14.003906 -4.1875 14.890625 -5.34375 C 15.785156 -6.507812 16.234375 -7.972656 16.234375 -9.734375 C 16.234375 -11.515625 15.785156 -12.976562 14.890625 -14.125 C 14.003906 -15.28125 12.804688 -15.859375 11.296875 -15.859375 Z M 11.296875 -15.859375 "></path></g></g></g><g fill="#424242" fill-opacity="1"><g transform="translate(178.294881, 196.047688)"><g><path d="M 11.265625 0.375 C 9.273438 0.375 7.53125 -0.0546875 6.03125 -0.921875 C 4.539062 -1.785156 3.382812 -2.972656 2.5625 -4.484375 C 1.738281 -5.992188 1.328125 -7.707031 1.328125 -9.625 C 1.328125 -10.90625 1.519531 -12.160156 1.90625 -13.390625 C 2.300781 -14.617188 2.90625 -15.722656 3.71875 -16.703125 C 4.53125 -17.691406 5.550781 -18.472656 6.78125 -19.046875 C 8.007812 -19.628906 9.457031 -19.921875 11.125 -19.921875 C 12.375 -19.921875 13.582031 -19.722656 14.75 -19.328125 C 15.925781 -18.929688 16.976562 -18.320312 17.90625 -17.5 C 18.832031 -16.675781 19.566406 -15.628906 20.109375 -14.359375 C 20.648438 -13.085938 20.921875 -11.566406 20.921875 -9.796875 L 20.921875 -8.796875 L 6.1875 -8.796875 C 6.238281 -8.378906 6.332031 -7.96875 6.46875 -7.5625 C 6.601562 -7.15625 6.753906 -6.800781 6.921875 -6.5 C 7.378906 -5.59375 7.992188 -4.890625 8.765625 -4.390625 C 9.546875 -3.898438 10.4375 -3.65625 11.4375 -3.65625 C 12.550781 -3.65625 13.484375 -3.941406 14.234375 -4.515625 C 14.984375 -5.097656 15.507812 -5.785156 15.8125 -6.578125 L 20.609375 -6.578125 C 20.242188 -5.316406 19.65625 -4.160156 18.84375 -3.109375 C 18.03125 -2.054688 17 -1.210938 15.75 -0.578125 C 14.5 0.0546875 13.003906 0.375 11.265625 0.375 Z M 6.390625 -12.3125 L 16.125 -12.3125 C 16.101562 -12.5625 16.039062 -12.847656 15.9375 -13.171875 C 15.832031 -13.492188 15.65625 -13.804688 15.40625 -14.109375 C 14.957031 -14.804688 14.367188 -15.328125 13.640625 -15.671875 C 12.910156 -16.023438 12.117188 -16.203125 11.265625 -16.203125 C 10.410156 -16.203125 9.628906 -16.023438 8.921875 -15.671875 C 8.210938 -15.328125 7.625 -14.804688 7.15625 -14.109375 C 6.90625 -13.804688 6.726562 -13.492188 6.625 -13.171875 C 6.519531 -12.847656 6.441406 -12.5625 6.390625 -12.3125 Z M 6.390625 -12.3125 "></path></g></g></g><g fill="#424242" fill-opacity="1"><g transform="translate(198.91307, 196.047688)"><g><path d="M 6.8125 0 L 2.125 0 L 2.125 -19.5 L 6.8125 -19.5 L 6.8125 -17.171875 C 7.550781 -18.191406 8.378906 -18.90625 9.296875 -19.3125 C 10.210938 -19.71875 11.238281 -19.921875 12.375 -19.921875 L 12.9375 -19.921875 L 12.9375 -15.40625 L 11.859375 -15.40625 C 11.066406 -15.40625 10.382812 -15.300781 9.8125 -15.09375 C 9.25 -14.882812 8.769531 -14.59375 8.375 -14.21875 C 7.863281 -13.707031 7.472656 -13.039062 7.203125 -12.21875 C 6.941406 -11.394531 6.8125 -10.335938 6.8125 -9.046875 Z M 6.8125 0 "></path></g></g></g><g fill="#424242" fill-opacity="1"><g transform="translate(210.873656, 196.047688)"><g><path d="M 10.5625 0.375 C 9.082031 0.375 7.671875 0.140625 6.328125 -0.328125 C 4.984375 -0.804688 3.851562 -1.5625 2.9375 -2.59375 C 2.019531 -3.625 1.445312 -4.953125 1.21875 -6.578125 L 5.84375 -6.578125 C 6.144531 -5.503906 6.695312 -4.6875 7.5 -4.125 C 8.3125 -3.570312 9.320312 -3.296875 10.53125 -3.296875 C 11.53125 -3.296875 12.351562 -3.492188 13 -3.890625 C 13.644531 -4.285156 13.96875 -4.84375 13.96875 -5.5625 C 13.96875 -6.144531 13.753906 -6.601562 13.328125 -6.9375 C 12.898438 -7.269531 12.335938 -7.53125 11.640625 -7.71875 C 10.953125 -7.90625 10.191406 -8.078125 9.359375 -8.234375 C 8.515625 -8.398438 7.660156 -8.597656 6.796875 -8.828125 C 5.929688 -9.054688 5.140625 -9.375 4.421875 -9.78125 C 3.703125 -10.1875 3.117188 -10.734375 2.671875 -11.421875 C 2.234375 -12.109375 2.015625 -12.992188 2.015625 -14.078125 C 2.015625 -15.441406 2.363281 -16.550781 3.0625 -17.40625 C 3.757812 -18.269531 4.679688 -18.90625 5.828125 -19.3125 C 6.972656 -19.71875 8.21875 -19.921875 9.5625 -19.921875 C 11.832031 -19.921875 13.734375 -19.347656 15.265625 -18.203125 C 16.796875 -17.054688 17.734375 -15.414062 18.078125 -13.28125 L 13.65625 -13.28125 C 13.382812 -14.34375 12.863281 -15.097656 12.09375 -15.546875 C 11.332031 -16.003906 10.476562 -16.234375 9.53125 -16.234375 C 8.601562 -16.234375 7.863281 -16.050781 7.3125 -15.6875 C 6.769531 -15.332031 6.5 -14.851562 6.5 -14.25 C 6.5 -13.71875 6.707031 -13.300781 7.125 -13 C 7.539062 -12.695312 8.085938 -12.460938 8.765625 -12.296875 C 9.453125 -12.140625 10.191406 -11.984375 10.984375 -11.828125 C 11.835938 -11.660156 12.710938 -11.46875 13.609375 -11.25 C 14.503906 -11.03125 15.328125 -10.71875 16.078125 -10.3125 C 16.828125 -9.90625 17.429688 -9.347656 17.890625 -8.640625 C 18.359375 -7.929688 18.59375 -7.019531 18.59375 -5.90625 C 18.59375 -4.007812 17.882812 -2.488281 16.46875 -1.34375 C 15.0625 -0.195312 13.09375 0.375 10.5625 0.375 Z M 10.5625 0.375 "></path></g></g></g><g fill="#424242" fill-opacity="1"><g transform="translate(229.266599, 196.047688)"><g><path d="M 11.296875 0.375 C 9.347656 0.375 7.617188 -0.0507812 6.109375 -0.90625 C 4.609375 -1.757812 3.4375 -2.957031 2.59375 -4.5 C 1.75 -6.039062 1.328125 -7.832031 1.328125 -9.875 C 1.328125 -11.84375 1.75 -13.578125 2.59375 -15.078125 C 3.4375 -16.585938 4.601562 -17.769531 6.09375 -18.625 C 7.59375 -19.488281 9.328125 -19.921875 11.296875 -19.921875 C 13.265625 -19.921875 15.003906 -19.488281 16.515625 -18.625 C 18.023438 -17.769531 19.203125 -16.585938 20.046875 -15.078125 C 20.890625 -13.578125 21.3125 -11.84375 21.3125 -9.875 C 21.3125 -7.851562 20.894531 -6.070312 20.0625 -4.53125 C 19.226562 -2.988281 18.054688 -1.785156 16.546875 -0.921875 C 15.035156 -0.0546875 13.285156 0.375 11.296875 0.375 Z M 11.296875 -3.65625 C 12.828125 -3.65625 14.066406 -4.234375 15.015625 -5.390625 C 15.960938 -6.546875 16.4375 -8.039062 16.4375 -9.875 C 16.4375 -11.03125 16.222656 -12.0625 15.796875 -12.96875 C 15.367188 -13.875 14.769531 -14.585938 14 -15.109375 C 13.238281 -15.628906 12.335938 -15.890625 11.296875 -15.890625 C 10.296875 -15.890625 9.398438 -15.632812 8.609375 -15.125 C 7.828125 -14.613281 7.21875 -13.90625 6.78125 -13 C 6.34375 -12.09375 6.125 -11.050781 6.125 -9.875 C 6.125 -8.019531 6.609375 -6.519531 7.578125 -5.375 C 8.554688 -4.226562 9.796875 -3.65625 11.296875 -3.65625 Z M 11.296875 -3.65625 "></path></g></g></g><g fill="#424242" fill-opacity="1"><g transform="translate(250.302017, 196.047688)"><g><path d="M 6.8125 0 L 2.125 0 L 2.125 -19.5 L 6.8125 -19.5 L 6.8125 -17.03125 C 7.601562 -18.125 8.425781 -18.878906 9.28125 -19.296875 C 10.132812 -19.710938 11.085938 -19.921875 12.140625 -19.921875 C 13.921875 -19.921875 15.269531 -19.601562 16.1875 -18.96875 C 17.101562 -18.332031 17.78125 -17.5625 18.21875 -16.65625 C 18.613281 -15.789062 18.84375 -14.910156 18.90625 -14.015625 C 18.976562 -13.128906 19.015625 -12.203125 19.015625 -11.234375 L 19.015625 0 L 14.359375 0 L 14.359375 -11.296875 C 14.359375 -12.296875 14.273438 -13.101562 14.109375 -13.71875 C 13.953125 -14.332031 13.710938 -14.820312 13.390625 -15.1875 C 12.828125 -15.769531 12.003906 -16.0625 10.921875 -16.0625 C 9.597656 -16.0625 8.613281 -15.664062 7.96875 -14.875 C 7.570312 -14.414062 7.28125 -13.800781 7.09375 -13.03125 C 6.90625 -12.269531 6.8125 -11.238281 6.8125 -9.9375 Z M 6.8125 0 "></path></g></g></g><g fill="#424242" fill-opacity="1"><g transform="translate(269.703276, 196.047688)"><g><path d="M 7.75 0.375 C 5.914062 0.375 4.390625 -0.113281 3.171875 -1.09375 C 1.960938 -2.082031 1.359375 -3.503906 1.359375 -5.359375 C 1.359375 -6.398438 1.5625 -7.285156 1.96875 -8.015625 C 2.375 -8.742188 2.910156 -9.335938 3.578125 -9.796875 C 4.203125 -10.242188 4.914062 -10.59375 5.71875 -10.84375 C 6.519531 -11.101562 7.328125 -11.3125 8.140625 -11.46875 L 13.9375 -12.546875 C 13.894531 -13.753906 13.582031 -14.671875 13 -15.296875 C 12.425781 -15.921875 11.554688 -16.234375 10.390625 -16.234375 C 9.515625 -16.234375 8.734375 -15.972656 8.046875 -15.453125 C 7.359375 -14.929688 6.925781 -14.207031 6.75 -13.28125 L 2.09375 -13.28125 C 2.320312 -14.8125 2.851562 -16.0625 3.6875 -17.03125 C 4.519531 -18.007812 5.53125 -18.734375 6.71875 -19.203125 C 7.914062 -19.679688 9.15625 -19.921875 10.4375 -19.921875 C 11.570312 -19.921875 12.660156 -19.757812 13.703125 -19.4375 C 14.742188 -19.113281 15.625 -18.613281 16.34375 -17.9375 C 17.101562 -17.269531 17.644531 -16.5 17.96875 -15.625 C 18.289062 -14.757812 18.484375 -13.851562 18.546875 -12.90625 C 18.609375 -11.96875 18.640625 -11.050781 18.640625 -10.15625 L 18.640625 0 L 13.9375 0 L 13.9375 -2.640625 C 13.457031 -1.785156 12.867188 -1.140625 12.171875 -0.703125 C 11.566406 -0.304688 10.882812 -0.03125 10.125 0.125 C 9.375 0.289062 8.582031 0.375 7.75 0.375 Z M 8.90625 -3.296875 C 9.832031 -3.296875 10.664062 -3.484375 11.40625 -3.859375 C 12.425781 -4.367188 13.113281 -5.050781 13.46875 -5.90625 C 13.832031 -6.769531 14.023438 -7.835938 14.046875 -9.109375 L 9.390625 -8.171875 C 8.710938 -8.054688 8.160156 -7.90625 7.734375 -7.71875 C 7.304688 -7.53125 6.953125 -7.3125 6.671875 -7.0625 C 6.484375 -6.875 6.332031 -6.648438 6.21875 -6.390625 C 6.101562 -6.140625 6.046875 -5.851562 6.046875 -5.53125 C 6.046875 -4.8125 6.316406 -4.257812 6.859375 -3.875 C 7.410156 -3.488281 8.09375 -3.296875 8.90625 -3.296875 Z M 8.90625 -3.296875 "></path></g></g></g><g fill="#424242" fill-opacity="1"><g transform="translate(288.617761, 196.047688)"><g><path d="M 4.3125 0.375 C 3.519531 0.375 2.84375 0.101562 2.28125 -0.4375 C 1.726562 -0.976562 1.453125 -1.644531 1.453125 -2.4375 C 1.453125 -3.175781 1.734375 -3.816406 2.296875 -4.359375 C 2.867188 -4.910156 3.539062 -5.1875 4.3125 -5.1875 C 5.050781 -5.1875 5.6875 -4.910156 6.21875 -4.359375 C 6.75 -3.816406 7.015625 -3.175781 7.015625 -2.4375 C 7.015625 -1.644531 6.75 -0.976562 6.21875 -0.4375 C 5.6875 0.101562 5.050781 0.375 4.3125 0.375 Z M 4.3125 0.375 "></path></g></g></g></svg>