<svg xmlns="http://www.w3.org/2000/svg" viewBox="51.572266 154.273437 56.875 56.875"><path fill="#424242" d="M 83.003906 187.765625 C 74.570312 185.1875 69.972656 173.980469 76.332031 168.828125 C 80.25 165.652344 88.121094 170.355469 82.703125 177.230469 C 95.800781 169.429688 78.078125 157.320312 71.253906 168.6875 C 66.277344 176.980469 72.03125 188.285156 83.003906 187.765625 " fill-opacity="1" fill-rule="evenodd"></path><path fill="#424242" d="M 74.957031 185.707031 C 77.535156 177.273438 88.738281 172.675781 93.894531 179.035156 C 97.070312 182.949219 92.363281 190.820312 85.488281 185.402344 C 93.289062 198.5 105.398438 180.777344 94.035156 173.957031 C 85.738281 168.976562 74.4375 174.730469 74.957031 185.707031 " fill-opacity="1" fill-rule="evenodd"></path><path fill="#424242" d="M 77.015625 177.65625 C 85.449219 180.234375 90.046875 191.441406 83.6875 196.59375 C 79.773438 199.769531 71.902344 195.066406 77.316406 188.191406 C 64.222656 195.988281 81.945312 208.101562 88.765625 196.734375 C 93.742188 188.4375 87.988281 177.136719 77.015625 177.65625 " fill-opacity="1" fill-rule="evenodd"></path><path fill="#424242" d="M 85.066406 179.714844 C 82.488281 188.152344 71.28125 192.746094 66.128906 186.386719 C 62.953125 182.472656 67.65625 174.601562 74.53125 180.019531 C 66.730469 166.921875 54.621094 184.644531 65.988281 191.464844 C 74.28125 196.445312 85.582031 190.691406 85.066406 179.714844 " fill-opacity="1" fill-rule="evenodd"></path></svg>